<svg width="12" height="14" viewBox="0 0 12 14" fill="none" xmlns="http://www.w3.org/2000/svg">
<path fill-rule="evenodd" clip-rule="evenodd" d="M9.33327 4.33333C9.70146 4.33333 9.99994 4.63181 9.99994 5V11.6667C9.99994 12.7712 9.10451 13.6667 7.99994 13.6667H3.99994C2.89537 13.6667 1.99994 12.7712 1.99994 11.6667V5C1.99994 4.63181 2.29842 4.33333 2.66661 4.33333H9.33327ZM8.66661 5.66667H3.33327V11.6667C3.33327 12.0349 3.63175 12.3333 3.99994 12.3333H7.99994C8.36813 12.3333 8.66661 12.0349 8.66661 11.6667V5.66667ZM4.00002 0.999919C4.00002 0.631729 4.2985 0.333252 4.66669 0.333252H7.33335C7.70154 0.333252 8.00002 0.631729 8.00002 0.999919V1.66659H10.6667C11.0349 1.66659 11.3334 1.96506 11.3334 2.33325C11.3334 2.70144 11.0349 2.99992 10.6667 2.99992H1.33335C0.965164 2.99992 0.666687 2.70144 0.666687 2.33325C0.666687 1.96506 0.965164 1.66659 1.33335 1.66659H4.00002V0.999919Z" fill="#F46A6A"/>
</svg>
