<svg width="16" height="16" viewBox="0 0 16 16" fill="none" xmlns="http://www.w3.org/2000/svg">
<path fill-rule="evenodd" clip-rule="evenodd" d="M14 13.3333C14.3682 13.3333 14.6666 13.6317 14.6666 13.9999C14.6666 14.3681 14.3682 14.6666 14 14.6666H1.99998C1.63179 14.6666 1.33331 14.3681 1.33331 13.9999C1.33331 13.6317 1.63179 13.3333 1.99998 13.3333H14ZM4.19524 8.86185L11.5286 1.52851C11.7689 1.28819 12.1471 1.26971 12.4086 1.47306L12.4714 1.52851L14.4714 3.52851C14.7117 3.76884 14.7302 4.14699 14.5268 4.40852L14.4714 4.47132L7.13805 11.8047C7.03386 11.9088 6.89874 11.975 6.75428 11.9941L6.66665 11.9999H4.66665C4.32476 11.9999 4.04297 11.7426 4.00446 11.411L3.99998 11.3333V9.33325C3.99998 9.18591 4.04876 9.0436 4.13737 8.9279L4.19524 8.86185L11.5286 1.52851L4.19524 8.86185ZM12 2.94279L5.33331 9.60946V10.6666H6.3905L13.0572 3.99998L12 2.94279Z" fill="#34C38F"/>
</svg>
