<svg xmlns="http://www.w3.org/2000/svg" width="337" height="108" fill="none"><g clip-path="url(#a)"><path fill="#fff" d="M336.416.324H.814v106.783h335.602V.324Z"/><path fill="#fff" d="M324.246.324H9.967v106.783h314.279V.324Z"/><path fill="#FF8200" d="M48.799 29.447c0 5.361-4.346 9.707-9.707 9.707-5.362 0-9.708-4.346-9.708-9.707 0-5.362 4.346-9.708 9.708-9.708 5.36 0 9.707 4.346 9.707 9.708Z"/><path fill="#FF8200" fill-rule="evenodd" d="M53.653 29.447c0 5.361 4.503 9.707 10.057 9.707h23.57c5.554 0 10.057-4.346 10.057-9.707 0-5.362-4.503-9.708-10.057-9.708H63.71c-5.554 0-10.057 4.346-10.057 9.708Zm9.708 7.28a7.28 7.28 0 1 0 0-14.56 7.28 7.28 0 0 0 0 14.56ZM29.384 77.635c0 5.554 4.346 10.056 9.708 10.056 5.36 0 9.707-4.502 9.707-10.056v-23.57c0-5.555-4.346-10.057-9.707-10.057-5.362 0-9.708 4.502-9.708 10.056v23.57ZM77.922 77.635c0 5.554 4.346 10.056 9.707 10.056 5.361 0 9.708-4.502 9.708-10.056v-23.57c0-5.555-4.347-10.057-9.708-10.057s-9.707 4.502-9.707 10.056v23.57Z" clip-rule="evenodd"/><path fill="#FF8200" d="M73.068 53.715c0 5.362-4.346 9.708-9.707 9.708-5.362 0-9.708-4.346-9.708-9.708 0-5.361 4.346-9.707 9.708-9.707 5.361 0 9.707 4.346 9.707 9.707Z"/><path fill="#FF8200" fill-rule="evenodd" d="M63.36 87.691c5.362 0 9.708-4.346 9.708-9.707 0-5.361-4.346-9.708-9.707-9.708-5.361 0-9.708 4.347-9.708 9.708S58 87.69 63.361 87.69Zm0-2.427a7.28 7.28 0 1 0 .001-14.56 7.28 7.28 0 0 0 0 14.56Z" clip-rule="evenodd"/><path fill="#25282A" d="M142.167 39.193h-16.856v10.805h14.09c1.306 0 2.277.298 2.91.893.653.577.98 1.355.98 2.334 0 .98-.327 1.758-.98 2.335-.653.576-1.623.864-2.91.864h-14.09v13.918c0 1.767-.404 3.083-1.211 3.947-.788.846-1.806 1.268-3.054 1.268-1.268 0-2.305-.432-3.112-1.296-.788-.865-1.182-2.171-1.182-3.92V37.839c0-1.23.183-2.228.548-2.997.365-.787.931-1.354 1.7-1.7.787-.364 1.786-.547 2.997-.547h20.17c1.364 0 2.373.307 3.026.922.672.596 1.008 1.383 1.008 2.363 0 .999-.336 1.806-1.008 2.42-.653.596-1.662.894-3.026.894ZM154.125 70.341V37.06c0-1.729.394-3.026 1.182-3.89.787-.865 1.805-1.297 3.054-1.297 1.287 0 2.324.432 3.112 1.297.807.845 1.21 2.142 1.21 3.89V70.34c0 1.748-.403 3.055-1.21 3.92-.788.864-1.825 1.296-3.112 1.296-1.229 0-2.247-.433-3.054-1.297-.788-.884-1.182-2.19-1.182-3.919ZM200.89 39.654h-9.336v30.688c0 1.767-.394 3.083-1.181 3.947-.788.846-1.806 1.268-3.055 1.268-1.267 0-2.305-.432-3.112-1.296-.787-.865-1.181-2.171-1.181-3.92V39.655h-9.336c-1.46 0-2.546-.317-3.256-.951-.711-.654-1.066-1.509-1.066-2.565 0-1.095.364-1.96 1.095-2.593.749-.634 1.824-.951 3.227-.951h27.201c1.479 0 2.574.326 3.285.98.73.653 1.095 1.508 1.095 2.564s-.365 1.911-1.095 2.565c-.73.634-1.825.95-3.285.95ZM238.954 39.654h-9.336v30.688c0 1.767-.394 3.083-1.181 3.947-.788.846-1.806 1.268-3.055 1.268-1.268 0-2.305-.432-3.112-1.296-.788-.865-1.181-2.171-1.181-3.92V39.655h-9.336c-1.461 0-2.546-.317-3.257-.951-.71-.654-1.066-1.509-1.066-2.565 0-1.095.365-1.96 1.095-2.593.749-.634 1.825-.951 3.228-.951h27.201c1.479 0 2.574.326 3.285.98.73.653 1.095 1.508 1.095 2.564s-.365 1.911-1.095 2.565c-.73.634-1.825.95-3.285.95ZM249.932 70.341V37.06c0-1.729.393-3.026 1.181-3.89.788-.865 1.806-1.297 3.054-1.297 1.288 0 2.325.432 3.113 1.297.806.845 1.21 2.142 1.21 3.89V70.34c0 1.748-.404 3.055-1.21 3.92-.788.864-1.825 1.296-3.113 1.296-1.229 0-2.247-.433-3.054-1.297-.788-.884-1.181-2.19-1.181-3.919ZM280.417 37.002l16.453 24.896V36.772c0-1.633.346-2.853 1.038-3.66.71-.826 1.661-1.239 2.852-1.239 1.23 0 2.2.413 2.911 1.239.71.807 1.066 2.027 1.066 3.66v33.224c0 3.707-1.537 5.56-4.61 5.56-.769 0-1.461-.114-2.075-.345a5.064 5.064 0 0 1-1.729-1.037 10.6 10.6 0 0 1-1.499-1.672c-.461-.653-.922-1.315-1.383-1.988l-16.05-24.608v24.752c0 1.614-.374 2.834-1.124 3.66-.749.826-1.709 1.239-2.881 1.239-1.21 0-2.18-.413-2.91-1.24-.73-.845-1.095-2.064-1.095-3.659v-32.59c0-1.383.153-2.468.461-3.256.365-.864.97-1.565 1.815-2.103a4.88 4.88 0 0 1 2.737-.836c.769 0 1.422.125 1.96.375.557.25 1.037.586 1.441 1.008.422.423.845.97 1.268 1.643.441.672.893 1.373 1.354 2.103Z"/></g><defs><clipPath id="a"><path fill="#fff" d="M.814.324h335.602v106.782H.814z"/></clipPath></defs></svg>