<svg xmlns="http://www.w3.org/2000/svg" width="69" height="69" fill="none"><path fill="#FF8200" d="M19.688 9.986c0 5.361-4.346 9.707-9.707 9.707-5.362 0-9.708-4.346-9.708-9.707C.273 4.624 4.62.278 9.981.278c5.36 0 9.707 4.346 9.707 9.708Z"/><path fill="#FF8200" fill-rule="evenodd" d="M24.543 9.986c0 5.361 4.502 9.707 10.056 9.707h23.57c5.555 0 10.057-4.346 10.057-9.707 0-5.362-4.502-9.708-10.056-9.708H34.6c-5.555 0-10.057 4.346-10.057 9.708Zm9.707 7.28a7.28 7.28 0 1 0 0-14.56 7.28 7.28 0 0 0 0 14.56ZM.273 58.174c0 5.555 4.346 10.057 9.708 10.057 5.36 0 9.707-4.502 9.707-10.057v-23.57c0-5.554-4.346-10.057-9.707-10.057-5.362 0-9.708 4.503-9.708 10.057v23.57ZM48.811 58.174c0 5.555 4.346 10.057 9.708 10.057 5.36 0 9.707-4.502 9.707-10.057v-23.57c0-5.554-4.346-10.057-9.707-10.057-5.362 0-9.708 4.503-9.708 10.057v23.57Z" clip-rule="evenodd"/><path fill="#FF8200" d="M43.957 34.255a9.707 9.707 0 0 1-9.707 9.707 9.707 9.707 0 0 1-9.707-9.707 9.707 9.707 0 0 1 9.707-9.708 9.707 9.707 0 0 1 9.707 9.708Z"/><path fill="#FF8200" fill-rule="evenodd" d="M34.25 68.23c5.361 0 9.707-4.345 9.707-9.707 0-5.36-4.346-9.707-9.707-9.707-5.361 0-9.707 4.346-9.707 9.707 0 5.362 4.346 9.708 9.707 9.708Zm0-2.426a7.28 7.28 0 1 0 0-14.561 7.28 7.28 0 0 0 0 14.561Z" clip-rule="evenodd"/></svg>