<svg width="14" height="12" viewBox="0 0 14 12" fill="none" xmlns="http://www.w3.org/2000/svg">
<path fill-rule="evenodd" clip-rule="evenodd" d="M6.99998 0.666748C9.39188 0.666748 11.5036 2.28836 13.3408 5.42909L13.4781 5.66749L13.6666 6.00008L13.3408 6.57107C11.5036 9.71181 9.39188 11.3334 6.99998 11.3334C4.60808 11.3334 2.4964 9.71181 0.659142 6.57107L0.521862 6.33267L0.333313 6.00008L0.521862 5.66749C2.39099 2.37045 4.54828 0.666748 6.99998 0.666748ZM6.99998 2.00008C5.19793 2.00008 3.4855 3.27711 1.87019 6.00008C3.4855 8.72306 5.19793 10.0001 6.99998 10.0001C8.7531 10.0001 10.4192 8.79346 11.9913 6.22989L12.1298 6.00017L11.9911 5.7703C10.4166 3.2052 8.75056 2.00008 6.99998 2.00008ZM6.99998 4.00008C8.10455 4.00008 8.99998 4.89551 8.99998 6.00008C8.99998 7.10465 8.10455 8.00008 6.99998 8.00008C5.89541 8.00008 4.99998 7.10465 4.99998 6.00008C4.99998 4.89551 5.89541 4.00008 6.99998 4.00008Z" fill="#FF8200"/>
</svg>
